<svg xmlns="http://www.w3.org/2000/svg" width="400" height="400" viewBox="0 0 400 400" role="img">
<title>Siapa Saya — Icon Logo</title>
<desc>Logo icon bulat dengan motif geometri Islam, simbol cermin hati, warna hijau jade dan emas</desc>

<circle cx="200" cy="200" r="188" fill="none" stroke="#b8972a" stroke-width="1.2" stroke-dasharray="5 8"/>
<circle cx="200" cy="200" r="178" fill="none" stroke="#2d5a4e" stroke-width="0.6"/>

<circle cx="200" cy="200" r="168" fill="#2d5a4e"/>

<g transform="translate(200,200)">
  <polygon points="0,-130 20,-20 130,0 20,20 0,130 -20,20 -130,0 -20,-20"
           fill="#b8972a" opacity="0.15"/>
  <polygon points="0,-130 20,-20 130,0 20,20 0,130 -20,20 -130,0 -20,-20"
           fill="#b8972a" opacity="0.10" transform="rotate(45)"/>

  <circle r="88" fill="none" stroke="#b8972a" stroke-width="0.8" opacity="0.4"/>

  <polygon points="0,-80 12,-12 80,0 12,12 0,80 -12,12 -80,0 -12,-12"
           fill="#b8972a" opacity="0.18"/>
  <polygon points="0,-80 12,-12 80,0 12,12 0,80 -12,12 -80,0 -12,-12"
           fill="#b8972a" opacity="0.12" transform="rotate(45)"/>

  <circle r="52" fill="#1d3a30"/>
  <circle r="46" fill="none" stroke="#b8972a" stroke-width="1.4"/>
  <circle r="38" fill="none" stroke="#b8972a" stroke-width="0.4" opacity="0.5"/>

  <path d="M0,14 C-22,-2 -30,-22 -16,-30 C-6,-34 0,-22 0,-14 C0,-22 6,-34 16,-30 C30,-22 22,-2 0,14 Z"
        fill="#b8972a"/>

  <line x1="0" y1="-46" x2="0" y2="46" stroke="#2d5a4e" stroke-width="1.8"/>

  <circle cx="0" cy="-46" r="2.5" fill="#b8972a"/>
  <circle cx="0" cy="46"  r="2.5" fill="#b8972a"/>
</g>

<circle cx="200" cy="22"  r="4" fill="#b8972a" opacity="0.5"/>
<circle cx="200" cy="378" r="4" fill="#b8972a" opacity="0.5"/>
<circle cx="22"  cy="200" r="4" fill="#b8972a" opacity="0.5"/>
<circle cx="378" cy="200" r="4" fill="#b8972a" opacity="0.5"/>

<circle cx="81"  cy="81"  r="2.5" fill="#b8972a" opacity="0.3"/>
<circle cx="319" cy="81"  r="2.5" fill="#b8972a" opacity="0.3"/>
<circle cx="81"  cy="319" r="2.5" fill="#b8972a" opacity="0.3"/>
<circle cx="319" cy="319" r="2.5" fill="#b8972a" opacity="0.3"/>

</svg>
